:SAMPLES-PER-SECOND 30
:FULLY-SPECIFIED
:DEGREES
986
root  73.3845 39.5542 -4.09763 -52.8308 -84.0542 47.9894
RightUpLeg  -10.4616 -12.6928 -13.3424
RightLeg  16.5076 -1.10635 -0.447657
RightFoot  2.15718 -0.434548 3.79221
RightToes  -1.16417e-010 0 -3.6325e-017
Spine  17.613 -2.22963 2.82519
Spine1  11.0243 -1.60146 -1.39625
HEad  -20.4827 3.94407 -5.04367
LeftShoulder1  10.0901 -15.141 -47.2293
LeftArm  7.2504 -5.39193 -20.4491
LeftForeArm  -170.252 -58.0139 -165.7
LeftHand  -0.244104 0.0205437 5.32207
RightShoulder  6.69761 11.9711 37.2576
RightArm  6.00156 -12.1703 34.779
RightForeArm  157.165 56.0814 164.087
RightHand  -13.0481 25.0997 -47.0576
LeftUpLeg  -6.50797 14.7895 -0.338645
LeftLeg  13.4891 8.19994 -1.0922
LeftFoot  -0.890975 0.0333797 -0.343627
LeftToes  -2.09216e-011 1.96776e-011 -5.83545e-012
987
root  73.0574 39.6884 -4.17137 -42.2407 -83.1192 37.7675
RightUpLeg  -9.0651 -16.3918 -13.722
RightLeg  14.8738 0.798265 0.911816
RightFoot  2.56976 -0.391819 3.35688
RightToes  -1.16417e-010 0 -3.6325e-017
Spine  16.6927 -2.45149 2.97834
Spine1  10.9561 -1.96265 -0.944184
HEad  -20.1234 3.32349 -5.16364
LeftShoulder1  10.0381 -15.2897 -46.6
LeftArm  6.43801 -8.39094 -19.7795
LeftForeArm  -169.831 -57.6794 -165.916
LeftHand  -0.244104 0.0205437 5.32207
RightShoulder  6.65451 11.8687 37.2665
RightArm  5.21442 -9.48346 34.0466
RightForeArm  158.761 54.4263 165.099
RightHand  -14.4256 27.1426 -48.5262
LeftUpLeg  -5.7688 12.6378 -0.0147136
LeftLeg  11.8836 8.79498 -1.62898
LeftFoot  -0.275771 0.0404447 -0.408191
LeftToes  -2.09216e-011 1.96776e-011 -5.83545e-012
988
root  72.7599 39.8447 -4.31378 -34.2649 -82.4784 30.346
RightUpLeg  -7.69999 -16.1438 -13.6933
RightLeg  12.8997 -0.709378 1.58872
RightFoot  3.14017 -0.353372 2.94662
RightToes  -1.16417e-010 0 -3.6325e-017
Spine  15.9847 -2.21732 2.85945
Spine1  10.2281 -1.99826 -0.0113718
HEad  -19.4422 2.68551 -4.91852
LeftShoulder1  10.0483 -15.5398 -46.0162
LeftArm  5.78291 -12.9205 -18.6608
LeftForeArm  -169.018 -58.5035 -165.539
LeftHand  -0.244104 0.0205437 5.32207
RightShoulder  6.66116 11.7573 37.6135
RightArm  3.77128 -5.92297 32.8247
RightForeArm  160.208 53.2528 165.807
RightHand  -15.6162 28.9524 -49.5723
LeftUpLeg  -5.12878 10.3997 0.692624
LeftLeg  9.94847 9.86706 -2.22755
LeftFoot  0.510306 0.0514384 -0.526131
LeftToes  -2.09216e-011 1.96776e-011 -5.83545e-012
989
root  72.5089 39.9846 -4.47928 -28.1403 -82.0463 24.8109
RightUpLeg  -6.44601 -14.4159 -13.3588
RightLeg  10.6311 -3.50909 1.94109
RightFoot  3.5034 -0.38414 3.13109
RightToes  -1.16417e-010 0 -3.6325e-017
Spine  15.163 -1.96028 3.03809
Spine1  9.6595 -1.78041 0.228486
HEad  -18.9029 2.03377 -4.29231
LeftShoulder1  9.86331 -15.6529 -44.8602
LeftArm  3.71837 -19.7106 -17.4001
LeftForeArm  -169.474 -61.7572 -163.476
LeftHand  -0.244104 0.0205437 5.32207
RightShoulder  6.71004 11.8068 37.7862
RightArm  2.44332 -0.340443 32.3092
RightForeArm  164.981 54.2474 165.739
RightHand  -16.3412 30.1836 -49.9862
LeftUpLeg  -4.64306 8.16616 1.48721
LeftLeg  8.09463 11.2589 -2.73738
LeftFoot  1.21463 0.0685601 -0.690078
LeftToes  -2.09216e-011 1.96776e-011 -5.83545e-012
990
root  72.3221 40.0933 -4.63781 -23.1284 -81.4759 20.2937
RightUpLeg  -5.30268 -13.4259 -13.167
RightLeg  8.39281 -5.52996 2.74299
RightFoot  3.88386 -0.376831 3.01855
RightToes  -1.16417e-010 0 -3.6325e-017
Spine  14.0035 -1.8577 2.89561
Spine1  9.53044 -1.82188 0.619189
HEad  -18.3395 1.4779 -4.20139
LeftShoulder1  9.58483 -15.8079 -43.1539
LeftArm  -1.41559 -27.7506 -15.8968
LeftForeArm  -172.877 -68.0773 -157.74
LeftHand  -0.244104 0.0205437 5.32207
RightShoulder  6.49655 11.6236 36.9317
RightArm  0.178751 9.33221 32.8909
RightForeArm  161.776 60.1643 162.007
RightHand  -15.7638 28.639 -50.3989
LeftUpLeg  -4.26671 6.41433 2.07707
LeftLeg  6.4037 12.1039 -3.08929
LeftFoot  1.96811 0.0849808 -0.830799
LeftToes  -2.09216e-011 1.96776e-011 -5.83545e-012
991
root  72.2363 40.1556 -4.78777 -19.8323 -80.9893 17.2446
RightUpLeg  -4.50146 -13.0737 -13.0119
RightLeg  6.88491 -6.46336 3.51527
RightFoot  4.31386 -0.326468 2.58806
RightToes  -1.16417e-010 0 -3.6325e-017
Spine  13.758 -1.87898 2.12552
Spine1  8.02292 -2.16046 1.53323
HEad  -16.5863 1.35352 -4.90801
LeftShoulder1  9.5163 -16.3244 -41.6434
LeftArm  -8.60567 -35.0991 -13.7477
LeftForeArm  177.484 -76.2065 -142.123
LeftHand  -0.244104 0.0205437 5.32207
RightShoulder  6.11367 11.1507 35.7477
RightArm  -3.85603 22.9636 33.5853
RightForeArm  145.173 72.468 143.92
RightHand  -17.1836 30.1316 -52.3859
LeftUpLeg  -4.00215 5.59394 2.50729
LeftLeg  5.22866 12.1946 -3.26358
LeftFoot  2.61898 0.0989671 -0.938307
LeftToes  -2.09216e-011 1.96776e-011 -5.83545e-012
992
root  72.2742 40.1753 -4.91934 -19.4896 -81.3087 16.9048
RightUpLeg  -4.34607 -12.7065 -12.6103
RightLeg  6.27959 -6.50446 3.61733
RightFoot  4.64028 -0.313306 2.4567
RightToes  -1.16417e-010 0 -3.6325e-017
Spine  14.8912 -1.32264 1.94371
Spine1  4.82683 -1.43074 1.18828
HEad  -13.3279 0.472434 -4.86529
LeftShoulder1  9.91596 -17.8825 -40.0868
LeftArm  -15.1869 -42.5634 -12.349
LeftForeArm  131.98 -81.7512 -85.0568
LeftHand  -0.244104 0.0205437 5.32207
RightShoulder  5.69515 10.3079 35.2592
RightArm  -8.31372 37.1361 33.9288
RightForeArm  73.1975 78.7679 63.1074
RightHand  -17.2594 31.0505 -50.6469
LeftUpLeg  -3.82542 5.52832 2.89454
LeftLeg  4.72021 12.4837 -3.34273
LeftFoot  2.94492 0.11292 -1.04386
LeftToes  -2.09216e-011 1.96776e-011 -5.83545e-012
993
root  72.3931 40.1748 -5.01822 -21.8486 -82.4011 19.2681
RightUpLeg  -4.76809 -12.2749 -12.1104
RightLeg  6.02254 -5.97742 3.46543
RightFoot  4.93659 -0.314961 2.43846
RightToes  -1.16417e-010 0 -3.6325e-017
Spine  15.5265 -1.14388 2.58201
Spine1  4.03068 -0.82738 -0.211234
HEad  -11.768 0.66699 -4.28013
LeftShoulder1  9.2797 -17.7236 -37.5271
LeftArm  -22.979 -52.2666 -12.0379
LeftForeArm  87.7907 -73.8665 -27.8895
LeftHand  -0.244104 0.0205437 5.32207
RightShoulder  5.30964 10.7833 31.2711
RightArm  -12.0626 49.8268 37.5747
RightForeArm  31.1629 62.4102 17.9109
RightHand  -7.54207 17.7099 -37.0786
LeftUpLeg  -3.80833 5.79526 3.22249
LeftLeg  4.61071 13.3323 -3.41771
LeftFoot  3.07385 0.128016 -1.15985
LeftToes  -2.09216e-011 1.96776e-011 -5.83545e-012
994
root  72.4965 40.1751 -5.0982 -23.3821 -83.0879 21.0597
RightUpLeg  -5.25886 -12.2186 -11.8131
RightLeg  5.63621 -5.57709 3.67622
RightFoot  5.28041 -0.283459 2.18736
RightToes  -1.16417e-010 0 -3.6325e-017
Spine  15.8127 -1.16198 3.60752
Spine1  4.29342 -0.389591 -1.66929
HEad  -12.2317 0.790569 -3.4445
LeftShoulder1  8.21701 -16.6917 -34.6349
LeftArm  -31.9645 -61.617 -12.8358
LeftForeArm  78.0048 -60.527 -12.7601
LeftHand  -0.244104 0.0205437 5.32207
RightShoulder  4.82738 11.6776 25.6689
RightArm  -17.9227 57.8817 40.7787
RightForeArm  21.4076 48.1361 10.5692
RightHand  -4.22863 9.71251 -32.2089
LeftUpLeg  -4.13534 6.03209 3.44355
LeftLeg  4.56271 13.814 -3.48869
LeftFoot  3.26906 0.144797 -1.28426
LeftToes  -2.09216e-011 1.96776e-011 -5.83545e-012
995
root  72.5112 40.183 -5.18402 -20.0947 -82.5043 18.2644
RightUpLeg  -5.32797 -12.4404 -11.7255
RightLeg  5.05411 -6.1904 4.11348
RightFoot  5.45366 -0.277254 2.13051
RightToes  -1.16417e-010 0 -3.6325e-017
Spine  16.2906 -0.921387 4.34861
Spine1  3.18046 0.18376 -2.70978
HEad  -13.1666 -0.394316 -2.57311
LeftShoulder1  7.86563 -17.2446 -31.8405
LeftArm  -39.963 -66.4633 -15.6155
LeftForeArm  67.7238 -49.446 -8.19883
LeftHand  -0.244104 0.0205437 5.32207
RightShoulder  4.42133 11.1428 24.0176
RightArm  -24.1132 60.9916 39.4596
RightForeArm  14.2316 43.0232 9.45129
RightHand  -7.34068 16.2566 -38.0735
LeftUpLeg  -4.7733 6.00664 3.57522
LeftLeg  4.41995 13.2038 -3.49146
LeftFoot  3.5339 0.161331 -1.40031
LeftToes  -2.09216e-011 1.96776e-011 -5.83545e-012
996
root  72.4341 40.2003 -5.27327 -15.3436 -81.2369 13.9645
RightUpLeg  -4.97017 -12.4767 -11.6354
RightLeg  4.40949 -7.60036 4.33178
RightFoot  5.32327 -0.332405 2.51831
RightToes  -1.16417e-010 0 -3.6325e-017
Spine  16.1299 -1.01839 3.46275
Spine1  2.66993 -0.337402 -1.38456
HEad  -14.3396 -0.179962 -2.86194
LeftShoulder1  7.69937 -17.2761 -30.9795
LeftArm  -46.4158 -67.4972 -16.2218
LeftForeArm  56.6686 -44.3131 -7.17786
LeftHand  -0.244104 0.0205437 5.32207
RightShoulder  4.20028 10.519 23.7791
RightArm  -25.4993 61.685 39.6225
RightForeArm  11.8593 44.6307 10.2592
RightHand  -10.1736 21.5385 -42.2257
LeftUpLeg  -5.22937 5.68636 3.68335
LeftLeg  4.03942 12.1921 -3.47288
LeftFoot  3.75096 0.170324 -1.45831
LeftToes  -2.09216e-011 1.96776e-011 -5.83545e-012
